<svg width="64" height="64" viewBox="0 0 64 64" fill="none" xmlns="http://www.w3.org/2000/svg">
<g clip-path="url(#clip0_7_48)">
<rect width="64" height="64" rx="10" fill="black"/>
<g filter="url(#filter0_d_7_48)">
<rect width="64" height="64" rx="10" fill="black"/>
</g>
<path d="M22.024 14H27.88V50H22.024V47C21.256 48.072 20.288 48.944 19.12 49.616C17.952 50.288 16.6 50.624 15.064 50.624C13.32 50.624 11.688 50.296 10.168 49.64C8.648 48.984 7.304 48.08 6.136 46.928C4.984 45.76 4.08 44.416 3.424 42.896C2.768 41.376 2.44 39.744 2.44 38C2.44 36.256 2.768 34.624 3.424 33.104C4.08 31.584 4.984 30.248 6.136 29.096C7.304 27.928 8.648 27.016 10.168 26.36C11.688 25.704 13.32 25.376 15.064 25.376C16.6 25.376 17.952 25.712 19.12 26.384C20.288 27.04 21.256 27.912 22.024 29V14ZM15.136 44.984C16.384 44.984 17.488 44.672 18.448 44.048C19.408 43.424 20.16 42.584 20.704 41.528C21.248 40.456 21.52 39.28 21.52 38C21.52 36.704 21.248 35.528 20.704 34.472C20.16 33.4 19.4 32.552 18.424 31.928C17.464 31.304 16.368 30.992 15.136 30.992C13.904 30.992 12.776 31.312 11.752 31.952C10.744 32.576 9.936 33.416 9.328 34.472C8.736 35.528 8.44 36.704 8.44 38C8.44 39.296 8.744 40.472 9.352 41.528C9.96 42.584 10.768 43.424 11.776 44.048C12.8 44.672 13.92 44.984 15.136 44.984ZM41.4306 50.624C39.2226 50.624 37.2066 50.056 35.3826 48.92C33.5746 47.784 32.1266 46.264 31.0386 44.36C29.9666 42.44 29.4306 40.32 29.4306 38C29.4306 36.24 29.7426 34.6 30.3666 33.08C30.9906 31.544 31.8466 30.2 32.9346 29.048C34.0386 27.88 35.3186 26.968 36.7746 26.312C38.2306 25.656 39.7826 25.328 41.4306 25.328C43.6386 25.328 45.6466 25.896 47.4546 27.032C49.2786 28.168 50.7266 29.696 51.7986 31.616C52.8866 33.536 53.4306 35.664 53.4306 38C53.4306 39.744 53.1186 41.376 52.4946 42.896C51.8706 44.416 51.0066 45.76 49.9026 46.928C48.8146 48.08 47.5426 48.984 46.0866 49.64C44.6466 50.296 43.0946 50.624 41.4306 50.624ZM41.4306 44.768C42.5986 44.768 43.6466 44.456 44.5746 43.832C45.5026 43.208 46.2306 42.384 46.7586 41.36C47.3026 40.336 47.5746 39.216 47.5746 38C47.5746 36.752 47.2946 35.616 46.7346 34.592C46.1906 33.552 45.4466 32.728 44.5026 32.12C43.5746 31.496 42.5506 31.184 41.4306 31.184C40.2786 31.184 39.2386 31.496 38.3106 32.12C37.3826 32.744 36.6466 33.576 36.1026 34.616C35.5586 35.656 35.2866 36.784 35.2866 38C35.2866 39.264 35.5666 40.408 36.1266 41.432C36.6866 42.456 37.4306 43.272 38.3586 43.88C39.3026 44.472 40.3266 44.768 41.4306 44.768Z" fill="white"/>
<path d="M57.705 50.91C56.4917 50.91 55.4533 50.49 54.59 49.65C53.75 48.7867 53.33 47.7367 53.33 46.5C53.33 45.31 53.75 44.2833 54.59 43.42C55.4533 42.5567 56.4917 42.125 57.705 42.125C58.9183 42.125 59.9567 42.5567 60.82 43.42C61.6833 44.2833 62.115 45.31 62.115 46.5C62.115 47.7367 61.6833 48.7867 60.82 49.65C59.9567 50.49 58.9183 50.91 57.705 50.91Z" fill="#E76500"/>
</g>
<defs>
<filter id="filter0_d_7_48" x="-4" y="0" width="72" height="72" filterUnits="userSpaceOnUse" color-interpolation-filters="sRGB">
<feFlood flood-opacity="0" result="BackgroundImageFix"/>
<feColorMatrix in="SourceAlpha" type="matrix" values="0 0 0 0 0 0 0 0 0 0 0 0 0 0 0 0 0 0 127 0" result="hardAlpha"/>
<feOffset dy="4"/>
<feGaussianBlur stdDeviation="2"/>
<feComposite in2="hardAlpha" operator="out"/>
<feColorMatrix type="matrix" values="0 0 0 0 0 0 0 0 0 0 0 0 0 0 0 0 0 0 0.25 0"/>
<feBlend mode="normal" in2="BackgroundImageFix" result="effect1_dropShadow_7_48"/>
<feBlend mode="normal" in="SourceGraphic" in2="effect1_dropShadow_7_48" result="shape"/>
</filter>
<clipPath id="clip0_7_48">
<rect width="64" height="64" rx="10" fill="white"/>
</clipPath>
</defs>
</svg>
