<svg width="320" height="132" viewBox="0 0 320 132" fill="none" xmlns="http://www.w3.org/2000/svg">
<g clip-path="url(#clip0_9_7)">
<rect width="320" height="132" rx="10" fill="black"/>
<g filter="url(#filter0_d_9_7)">
<rect x="40" y="-9" width="327" height="132" rx="10" fill="black"/>
</g>
<path d="M137.94 16.5H153.8V114H137.94V105.875C135.86 108.778 133.238 111.14 130.075 112.96C126.912 114.78 123.25 115.69 119.09 115.69C114.367 115.69 109.947 114.802 105.83 113.025C101.713 111.248 98.0733 108.8 94.91 105.68C91.79 102.517 89.3417 98.8767 87.565 94.76C85.7883 90.6433 84.9 86.2233 84.9 81.5C84.9 76.7767 85.7883 72.3567 87.565 68.24C89.3417 64.1233 91.79 60.505 94.91 57.385C98.0733 54.2217 101.713 51.7517 105.83 49.975C109.947 48.1983 114.367 47.31 119.09 47.31C123.25 47.31 126.912 48.22 130.075 50.04C133.238 51.8167 135.86 54.1783 137.94 57.125V16.5ZM119.285 100.415C122.665 100.415 125.655 99.57 128.255 97.88C130.855 96.19 132.892 93.915 134.365 91.055C135.838 88.1517 136.575 84.9667 136.575 81.5C136.575 77.99 135.838 74.805 134.365 71.945C132.892 69.0417 130.833 66.745 128.19 65.055C125.59 63.365 122.622 62.52 119.285 62.52C115.948 62.52 112.893 63.3867 110.12 65.12C107.39 66.81 105.202 69.085 103.555 71.945C101.952 74.805 101.15 77.99 101.15 81.5C101.15 85.01 101.973 88.195 103.62 91.055C105.267 93.915 107.455 96.19 110.185 97.88C112.958 99.57 115.992 100.415 119.285 100.415ZM190.5 115.69C184.52 115.69 179.06 114.152 174.12 111.075C169.223 107.998 165.301 103.882 162.355 98.725C159.451 93.525 158 87.7833 158 81.5C158 76.7333 158.845 72.2917 160.535 68.175C162.225 64.015 164.543 60.375 167.49 57.255C170.48 54.0917 173.946 51.6217 177.89 49.845C181.833 48.0683 186.036 47.18 190.5 47.18C196.48 47.18 201.918 48.7183 206.815 51.795C211.755 54.8717 215.676 59.01 218.58 64.21C221.526 69.41 223 75.1733 223 81.5C223 86.2233 222.155 90.6433 220.465 94.76C218.775 98.8767 216.435 102.517 213.445 105.68C210.498 108.8 207.053 111.248 203.11 113.025C199.21 114.802 195.006 115.69 190.5 115.69ZM190.5 99.83C193.663 99.83 196.501 98.985 199.015 97.295C201.528 95.605 203.5 93.3733 204.93 90.6C206.403 87.8267 207.14 84.7933 207.14 81.5C207.14 78.12 206.381 75.0433 204.865 72.27C203.391 69.4533 201.376 67.2217 198.82 65.575C196.306 63.885 193.533 63.04 190.5 63.04C187.38 63.04 184.563 63.885 182.05 65.575C179.536 67.265 177.543 69.5183 176.07 72.335C174.596 75.1517 173.86 78.2067 173.86 81.5C173.86 84.9233 174.618 88.0217 176.135 90.795C177.651 93.5683 179.666 95.7783 182.18 97.425C184.736 99.0283 187.51 99.83 190.5 99.83Z" fill="white"/>
<path d="M229.084 115.768C226.726 115.768 224.709 114.952 223.032 113.32C221.4 111.643 220.584 109.603 220.584 107.2C220.584 104.888 221.4 102.893 223.032 101.216C224.709 99.5387 226.726 98.7 229.084 98.7C231.441 98.7 233.458 99.5387 235.136 101.216C236.813 102.893 237.652 104.888 237.652 107.2C237.652 109.603 236.813 111.643 235.136 113.32C233.458 114.952 231.441 115.768 229.084 115.768Z" fill="#E76500"/>
</g>
<defs>
<filter id="filter0_d_9_7" x="36" y="-9" width="335" height="140" filterUnits="userSpaceOnUse" color-interpolation-filters="sRGB">
<feFlood flood-opacity="0" result="BackgroundImageFix"/>
<feColorMatrix in="SourceAlpha" type="matrix" values="0 0 0 0 0 0 0 0 0 0 0 0 0 0 0 0 0 0 127 0" result="hardAlpha"/>
<feOffset dy="4"/>
<feGaussianBlur stdDeviation="2"/>
<feComposite in2="hardAlpha" operator="out"/>
<feColorMatrix type="matrix" values="0 0 0 0 0 0 0 0 0 0 0 0 0 0 0 0 0 0 0.25 0"/>
<feBlend mode="normal" in2="BackgroundImageFix" result="effect1_dropShadow_9_7"/>
<feBlend mode="normal" in="SourceGraphic" in2="effect1_dropShadow_9_7" result="shape"/>
</filter>
<clipPath id="clip0_9_7">
<rect width="320" height="132" rx="10" fill="white"/>
</clipPath>
</defs>
</svg>
